<?xml version="1.0" encoding="utf-8"?>
<!-- Generator: Adobe Illustrator 24.0.0, SVG Export Plug-In . SVG Version: 6.00 Build 0)  -->
<svg version="1.1" id="图层_1" xmlns="http://www.w3.org/2000/svg" xmlns:xlink="http://www.w3.org/1999/xlink" x="0px" y="0px"
	 viewBox="0 0 612 792" style="enable-background:new 0 0 612 792;" xml:space="preserve">
<g>
	<path d="M287.6,606.7H82.1C71.7,606.7,63,596,63,583.3V162.1c0-12.7,8.7-23.5,19.1-23.5h382.6c10.3,0,19.1,10.8,19.1,23.5V371
		c0,12.5,10.1,22.7,22.5,22.7c12.4,0,22.5-10.1,22.5-22.7V162.1c0-37.9-28.8-68.8-64.1-68.8H82.1c-35.3,0-64.1,30.9-64.1,68.8v421.2
		c0,37.9,28.8,68.8,64.1,68.8h205.5c12.4,0,22.5-10.1,22.5-22.7C310.1,616.9,300.1,606.7,287.6,606.7L287.6,606.7L287.6,606.7z"/>
	<path d="M118.4,249.1c0,13.4,10.8,24.2,24,24.2s24-10.8,24-24.2c0-13.3-10.8-24.2-24-24.2S118.4,235.8,118.4,249.1L118.4,249.1z"/>
	<path d="M118.4,362.7c0,13.3,10.8,24.2,24,24.2s24-10.8,24-24.2c0-13.4-10.8-24.2-24-24.2S118.4,349.3,118.4,362.7L118.4,362.7z"/>
	<path d="M118.4,473.2c0,13.4,10.8,24.2,24,24.2s24-10.8,24-24.2c0-13.3-10.8-24.2-24-24.2S118.4,459.8,118.4,473.2L118.4,473.2z"/>
	<path d="M408.7,226.5H218.4c-12.4,0-22.5,10.1-22.5,22.7c0,12.5,10.1,22.7,22.5,22.7h190.3c12.4,0,22.5-10.1,22.5-22.7
		C431.2,236.6,421.2,226.5,408.7,226.5L408.7,226.5z M408.7,340H218.4c-12.4,0-22.5,10.1-22.5,22.7s10.1,22.7,22.5,22.7h190.3
		c12.4,0,22.5-10.1,22.5-22.7S421.2,340,408.7,340L408.7,340z M292.1,450.5h-73.6c-12.4,0-22.5,10.1-22.5,22.7
		c0,12.5,10.1,22.7,22.5,22.7h73.6c12.4,0,22.5-10.1,22.5-22.7C314.6,460.6,304.5,450.5,292.1,450.5L292.1,450.5z"/>
</g>
<g>
	<path d="M464.3,612.4c-32.7,0-59.2-26.7-59.2-59.6c0-32.9,26.6-59.6,59.2-59.6c32.6,0,59.2,26.8,59.2,59.6
		C523.5,585.6,496.9,612.4,464.3,612.4z"/>
</g>
<path d="M464.3,698.7c-4.3,0-8.5-1.1-12.3-3.3l-105.1-60.7c-7.6-4.4-12.3-12.6-12.3-21.3V492.1c0-8.8,4.7-16.9,12.3-21.3L452,410.1
	c7.6-4.4,17-4.4,24.6,0l105.1,60.7c7.6,4.4,12.3,12.6,12.3,21.3v121.4c0,8.8-4.7,16.9-12.3,21.3l-105.1,60.7
	C472.8,697.6,468.5,698.7,464.3,698.7z M363.6,610.9l100.7,58.2L565,610.9V494.6l-100.7-58.2l-100.7,58.2V610.9z"/>
</svg>
