<?xml version="1.0" encoding="utf-8"?>
<!-- Generator: Adobe Illustrator 24.0.0, SVG Export Plug-In . SVG Version: 6.00 Build 0)  -->
<svg version="1.1" id="图层_1" xmlns="http://www.w3.org/2000/svg" xmlns:xlink="http://www.w3.org/1999/xlink" x="0px" y="0px"
	 viewBox="0 0 612 792" style="enable-background:new 0 0 612 792;" xml:space="preserve">
<style type="text/css">
	.st0{clip-path:url(#SVGID_2_);}
</style>
<g>
	<g>
		<g>
			<defs>
				<rect id="SVGID_1_" x="11.9" y="109" width="588.1" height="546"/>
			</defs>
			<clipPath id="SVGID_2_">
				<use xlink:href="#SVGID_1_"  style="overflow:visible;"/>
			</clipPath>
			<path class="st0" d="M577.4,225.2c24.4,9.6,28.7,37.7,9,50.9c-7.2,4.8-3.7,2-13,7L331.9,393.4c-15.5,8-43.9,8-58.9,0.1L34,284
				c-20.8-6.5-27.7-29.4-17.3-42.4c6.1-7.6,9.1-8.2,17.3-13.1l245.1-110.9c14.3-6.1,38-7.2,51.8-0.7L577.4,225.2z"/>
		</g>
	</g>
</g>
<path d="M307.3,538.2c-20.6,0-41.2-4.2-57-12.6L29.9,414.1c-14.8-7.5-20.7-25.5-13.2-40.3s25.5-20.7,40.3-13.2l221,111.8l0.3,0.2
	c13,7,41.5,7.5,55.5,0.9l221.6-108.3c14.9-7.3,32.8-1.1,40.1,13.8c7.3,14.9,1.1,32.9-13.8,40.1L359.7,527.5
	C344.8,534.7,326,538.2,307.3,538.2z"/>
<path d="M307.3,671.1c-20.6,0-41.3-4.2-57-12.6L29.9,547c-14.8-7.5-20.7-25.5-13.2-40.3c7.5-14.8,25.5-20.7,40.3-13.2l221,111.8
	l0.3,0.2c13,7,41.5,7.5,55.5,0.9L555.4,498c14.9-7.3,32.8-1.1,40.1,13.8c7.3,14.9,1.1,32.8-13.8,40.1L359.7,660.5
	C344.8,667.6,326,671.1,307.3,671.1z"/>
</svg>
