<?xml version="1.0" encoding="utf-8"?>
<!-- Generator: Adobe Illustrator 24.0.0, SVG Export Plug-In . SVG Version: 6.00 Build 0)  -->
<svg version="1.1" id="图层_1" xmlns="http://www.w3.org/2000/svg" xmlns:xlink="http://www.w3.org/1999/xlink" x="0px" y="0px"
	 viewBox="0 0 612 792" style="enable-background:new 0 0 612 792;" xml:space="preserve">
<path d="M287.9,353H92.8c-37.7,0-68.3-30.6-68.3-68.3V87h185.1c43.2,0,78.3,35,78.3,78.3L287.9,353L287.9,353z"/>
<path d="M533.2,353.1H333.7V150.7c0-35.4,28.8-64.3,64.3-64.3h199.5v202.5C597.5,324.3,568.7,353.1,533.2,353.1z M388.8,298.1h144.4
	c5.1,0,9.2-4.1,9.2-9.2V141.5H398c-5.1,0-9.2,4.1-9.2,9.2L388.8,298.1L388.8,298.1z"/>
<path d="M224.4,664.6H24.9V462.2c0-35.4,28.8-64.3,64.3-64.3h199.5v202.5C288.7,635.8,259.8,664.6,224.4,664.6z M80,609.6h144.4
	c5.1,0,9.2-4.1,9.2-9.2V453H89.2c-5.1,0-9.2,4.1-9.2,9.2L80,609.6L80,609.6z"/>
<path d="M597.5,664.6H398c-35.4,0-64.3-28.8-64.3-64.3V397.9h199.5c35.4,0,64.3,28.8,64.3,64.3L597.5,664.6L597.5,664.6z M388.8,453
	v147.4c0,5.1,4.1,9.2,9.2,9.2h144.4V462.2c0-5.1-4.1-9.2-9.2-9.2H388.8z"/>
</svg>
